<?xml version="1.0" encoding="UTF-8"?>
<svg id="Layer_1" xmlns="http://www.w3.org/2000/svg" version="1.1" viewBox="0 0 1024 1024" style="background:none">
  <!-- Generator: Adobe Illustrator 29.8.2, SVG Export Plug-In . SVG Version: 2.1.1 Build 3)  -->
  <defs>
    
  </defs>
  <path d="M155.7,717v-412.7L502.5,99.1l19-16.7c0-3.4-1.8-6.6-4.8-8.3-3-1.7-6.6-1.7-9.6,0l-365.9,216.4c-2.9,1.7-4.7,4.8-4.7,8.2v430.8c0,3.4,1.8,6.6,4.8,8.3,1.5.8,3.1,1.3,4.7,1.3s3.3-.4,4.8-1.3" fill="#ffffff"/>
  <path d="M882.7,723.4l-135.1-79.9-18.7,11.1,130.2,77-347.2,205.3-347.2-205.3,314.9-186.3-18.7-11.1-319.8,189.1c-2.9,1.7-4.7,4.8-4.7,8.2s1.8,6.5,4.7,8.2l365.9,216.4c1.5.9,3.2,1.3,4.8,1.3s3.3-.4,4.8-1.3l365.9-216.4c2.9-1.7,4.7-4.8,4.7-8.2s-1.8-6.5-4.7-8.2" fill="#ffffff"/>
  <path d="M512,524.7c-1.7,0-3.3-.4-4.8-1.3l-365.9-216.4c-2.9-1.7-4.7-4.8-4.7-8.2s1.8-6.5,4.7-8.2L507.1,74.2c3-1.8,6.7-1.8,9.7,0l365.9,216.4c2.9,1.7,4.7,4.8,4.7,8.2s-1.8,6.5-4.7,8.2l-365.9,216.4c-1.5.9-3.2,1.3-4.8,1.3M164.8,298.8l347.2,205.3,347.2-205.3L512,93.5l-347.2,205.3Z" fill="#ffffff"/>
  <polygon points="544.2 545.3 859.2 731.6 874 718.3 562.9 534.3 544.2 545.3" fill="#ffffff"/>
</svg>